# xmcd
#
# Track frame offsets:
#	150
#	9197
#	18250
#	27289
#	36358
#	45405
#	54474
#	63527
#	72558
#	81625
#	90690
#	99729
#	108780
#	117829
#	126872
#	135921
#	144946
#	153997
#	163038
#	172097
#	181148
#	190181
#	199224
#	208259
#	217290
#	226333
#	235388
#	244423
#	253452
#	262497
#	271550
#	280577
#	289620
#	298663
#	307728
#	316763
#
# Disc length: 4379
#
# Revision: 1
# Processed by: cddbd v1.5.1PL0 Copyright (c) Steve Scherf et al.
# Submitted via: audiograbber 1.82.02
# Normalized: r0:DSETVAR1
#
DISCID=17111924
DTITLE=Various Artist - DJ LRM - Instrumental World Vol. 13 (Bad Boy 2nd Edition)
DYEAR=2003
DGENRE=Hip-Hop
TTITLE0=Craig Mack - Making Moves With Puff
TTITLE1=Biggie - Warning
TTITLE2=Puff Feat. G-Dep and Black Rob - Let's Get It
TTITLE3=Black Rob Feat. Cee-Lo - Lookin At Us
TTITLE4=Biggie Feat. Method Man and Redman - Rap Phenomenon
TTITLE5=Biggie Feat. Craig Mack and G-Dep - Let Me Get Down
TTITLE6=Puff Feat. R. Kelly - Satisfy You
TTITLE7=Shyne Feat. Barrington Levy - Bonnie and Shyne
TTITLE8=Loon Feat. Kelis - How You Want That
TTITLE9=Da Band - Bad Boy This, Bad Boy That
TTITLE10=Da Band - Hold Me Down
TTITLE11=G-Dep - Dangerous
TTITLE12=Puff Feat. Ginuwine and Twista - Is This The End?
TTITLE13=Puff - Pain
TTITLE14=Puff Feat. Biggie and Jay-Z - Young G's
TTITLE15=Black Rob - B. R.
TTITLE16=Puff Feat. Kain and Mark Curry - Lonely
TTITLE17=Black Rob Feat. Puff - That's Crazy
TTITLE18=Biggie Feat. Eminem - Dead Wrong
TTITLE19=Lox Feat. Mase - If You Want It
TTITLE20=Black Rob Feat. Lil Kim - Espacio
TTITLE21=Shyne - It's Ok
TTITLE22=Puff - Diddy
TTITLE23=Hoodfellaz - Hoodfellaz
TTITLE24=Puff Feat. 8Ball and MJG - Roll With Me
TTITLE25=Mase Feat. 8Ball and MJG - The Player Way
TTITLE26=Puff Feat. Black Rob and Foxy - And We
TTITLE27=Biggie Feat. Too Short - Big Booty Hoes
TTITLE28=G-Dep Feat. Black Rob - One Way
TTITLE29=Puff - P.E. 2000 (Lost Remix)
TTITLE30=Mase - Stay Out Of My Way
TTITLE31=Mase Feat. Blackstreet - Get Ready
TTITLE32=Biggie Feat. Puff and Lil Kim - Notorious B.I.G. (Remix)
TTITLE33=Biggie Feat. Junior Mafia - Biggie
TTITLE34=Vic Damone - Freestyle (Rags 2 Riches)
TTITLE35=Vic Damone - Freestyle (Rags 2 Riches)
EXTD=
EXTT0=
EXTT1=
EXTT2=
EXTT3=
EXTT4=
EXTT5=
EXTT6=
EXTT7=
EXTT8=
EXTT9=
EXTT10=
EXTT11=
EXTT12=
EXTT13=
EXTT14=
EXTT15=
EXTT16=
EXTT17=
EXTT18=
EXTT19=
EXTT20=
EXTT21=
EXTT22=
EXTT23=
EXTT24=
EXTT25=
EXTT26=
EXTT27=
EXTT28=
EXTT29=
EXTT30=
EXTT31=
EXTT32=
EXTT33=
EXTT34=
EXTT35=
PLAYORDER=
